<?xml version="1.0" encoding="UTF-8" standalone="no"?>
<!-- Created with Inkscape (http://www.inkscape.org/) -->

<svg
   version="1.1"
   id="svg2"
   width="547.133"
   height="546.1333"
   viewBox="0 0 547.13299 546.1333"
   sodipodi:docname="package.svg"
   inkscape:version="1.2.2 (b0a8486541, 2022-12-01)"
   xmlns:inkscape="http://www.inkscape.org/namespaces/inkscape"
   xmlns:sodipodi="http://sodipodi.sourceforge.net/DTD/sodipodi-0.dtd"
   xmlns="http://www.w3.org/2000/svg"
   xmlns:svg="http://www.w3.org/2000/svg">
  <defs
     id="defs6" />
  <sodipodi:namedview
     id="namedview4"
     pagecolor="#ffffff"
     bordercolor="#000000"
     borderopacity="0.25"
     inkscape:showpageshadow="2"
     inkscape:pageopacity="0.0"
     inkscape:pagecheckerboard="0"
     inkscape:deskcolor="#d1d1d1"
     showgrid="false"
     inkscape:zoom="0.54509028"
     inkscape:cx="502.66902"
     inkscape:cy="369.66353"
     inkscape:window-width="1854"
     inkscape:window-height="1011"
     inkscape:window-x="66"
     inkscape:window-y="32"
     inkscape:window-maximized="1"
     inkscape:current-layer="g8" />
  <g
     inkscape:groupmode="layer"
     inkscape:label="Image"
     id="g8">
    <path
       style="fill:#000000;stroke-width:1.06667"
       d="M 134.0972,482.56347 C 62.989027,444.74068 17.636937,420.19007 12.816697,416.47615 7.9964574,412.76223 1.1700374,403.12202 1.1700374,398.15077 c 0,-4.97125 -0.28902003,-119.15586 -0.28902003,-119.15586 l -0.28901,-119.15588 14.74291963,7.66614 c 8.10861,4.21637 64.507194,33.58613 125.330183,65.26613 l 110.58725,57.59999 0.0255,127.19999 c 0.014,69.96 -0.0945,127.16648 -0.24116,127.12552 -0.14667,-0.041 -52.76943,-28.00097 -116.93949,-62.13333 z M 283.30336,418.027 V 291.28273 l 52.08207,-25.78906 c 28.64512,-14.18396 52.40512,-25.78904 52.79999,-25.78904 0.39486,0 0.71972,13.08 0.72192,29.06666 0.003,27.1225 0.14576,29.29919 2.12359,32.54308 6.51187,10.68032 22.0349,10.23901 27.89737,-0.7931 1.81244,-3.41069 1.97505,-6.75027 1.97505,-40.56266 v -36.84595 l 62.95577,-31.095 62.95578,-31.09501 -0.28911,118.59098 c 0,0 -0.28911,116.48757 -0.28911,118.59099 0,2.10342 -3.54166,7.03343 -4.79356,8.86841 -1.2519,1.83498 0.33963,7.42744 -133.8731,75.50691 -67.46666,34.2225 -123.02666,62.23816 -123.46666,62.25703 -0.44,0.0189 -0.8,-57.00061 -0.8,-126.70997 z M 146.22239,199.54439 C 79.350261,164.6519 22.782967,135.13658 20.517297,133.9548 c -3.829,-1.99722 -3.9794,-2.24653 -2.13334,-3.53632 1.09235,-0.7632 24.23992,-13.20992 51.439054,-27.65937 L 119.27599,76.487358 245.55633,143.28626 c 69.45419,36.73939 126.28036,67.12786 126.28036,67.52994 0,0.50875 -95.46841,48.41689 -103.48098,51.92902 -0.3012,0.13203 -55.2612,-28.30835 -122.13332,-63.20083 z M 280.94118,125.83021 C 211.29532,89.021141 154.304,58.664638 154.29378,58.371308 154.25688,57.311968 251.59667,6.1285982 257.3438,4.3989682 c 5.74713,-1.72963 17.47332,-1.585805 22.87678,0.4167 C 285.62404,6.8181732 514.828,122.60792 526.45303,129.11816 l 5.81634,3.25727 -61.17291,30.19794 c -33.64511,16.60886 -61.70246,30.19444 -62.34968,30.19017 -0.64722,-0.004 -58.15973,-30.12426 -127.8056,-66.93333 z"
       id="path894"
       sodipodi:nodetypes="szzccsscssssscsscssscccczzssssssscsssssszzscscs" />
  </g>
</svg>
